# Blender 3.6.4
# www.blender.org
mtllib shapes.mtl
o Cube
v -2.298657 1.000000 -1.000000
v -2.298657 -1.000000 -1.000000
v -2.298657 1.000000 1.000000
v -2.298657 -1.000000 1.000000
v -4.298656 1.000000 -1.000000
v -4.298656 -1.000000 -1.000000
v -4.298656 1.000000 1.000000
v -4.298656 -1.000000 1.000000
v -2.785079 2.041490 0.513577
v -3.812234 2.041490 0.513577
v -2.785079 2.041490 -0.513577
v -3.812234 2.041490 -0.513577
v -1.543908 1.000000 -1.000000
v -1.543908 -1.000000 -1.000000
v -1.543908 1.000000 1.000000
v -1.543908 -1.000000 1.000000
v -0.928168 0.490998 -0.490998
v -0.928168 -0.490998 -0.490998
v -0.928168 0.490998 0.490998
v -0.928168 -0.490998 0.490998
vn -0.9061 0.4232 -0.0000
vn -0.0000 -0.0000 1.0000
vn -1.0000 -0.0000 -0.0000
vn -0.0000 -1.0000 -0.0000
vn -0.0000 -0.0000 -1.0000
vn -0.0000 1.0000 -0.0000
vn 0.9061 0.4232 -0.0000
vn -0.0000 0.4232 -0.9061
vn -0.0000 0.4232 0.9061
vn 0.6371 0.7707 -0.0000
vn 0.6371 -0.0000 -0.7707
vn 0.6371 -0.7707 -0.0000
vn 0.6371 -0.0000 0.7707
vt 0.625000 0.000000
vt 0.625000 0.250000
vt 0.625000 0.750000
vt 0.375000 1.000000
vt 0.375000 0.750000
vt 0.375000 0.250000
vt 0.375000 0.000000
vt 0.375000 0.500000
vt 0.125000 0.750000
vt 0.125000 0.500000
vt 0.875000 0.500000
vt 0.625000 0.500000
vt 0.625000 1.000000
vt 0.875000 0.750000
s 0
usemtl Material
f 7/1/1 12/2/1 5/2/1
f 3/3/2 8/4/2 4/5/2
f 7/1/3 6/6/3 8/7/3
f 2/8/4 8/9/4 6/10/4
f 4/5/2 15/3/2 3/3/2
f 5/2/5 2/8/5 6/6/5
f 12/11/6 9/3/6 11/12/6
f 1/12/7 9/3/7 3/3/7
f 5/2/8 11/12/8 1/12/8
f 7/13/9 9/3/9 10/13/9
f 15/3/10 17/12/10 13/12/10
f 1/12/5 14/8/5 2/8/5
f 2/8/4 16/5/4 4/5/4
f 3/3/6 13/12/6 1/12/6
f 13/12/11 18/8/11 14/8/11
f 14/8/12 20/5/12 16/5/12
f 16/5/13 19/3/13 15/3/13
f 7/1/1 10/1/1 12/2/1
f 3/3/2 7/13/2 8/4/2
f 7/1/3 5/2/3 6/6/3
f 2/8/4 4/5/4 8/9/4
f 4/5/2 16/5/2 15/3/2
f 5/2/5 1/12/5 2/8/5
f 12/11/6 10/14/6 9/3/6
f 1/12/7 11/12/7 9/3/7
f 5/2/8 12/2/8 11/12/8
f 7/13/9 3/3/9 9/3/9
f 15/3/10 19/3/10 17/12/10
f 1/12/5 13/12/5 14/8/5
f 2/8/4 14/8/4 16/5/4
f 3/3/6 15/3/6 13/12/6
f 13/12/11 17/12/11 18/8/11
f 14/8/12 18/8/12 20/5/12
f 16/5/13 20/5/13 19/3/13
o Cone
v 0.000000 -1.000000 -3.657183
v 0.195090 -1.000000 -3.637969
v 0.382683 -1.000000 -3.581063
v 0.555570 -1.000000 -3.488653
v 0.707107 -1.000000 -3.364290
v 0.831470 -1.000000 -3.212754
v 0.923880 -1.000000 -3.039867
v 0.980785 -1.000000 -2.852274
v 1.000000 -1.000000 -2.657183
v 0.980785 -1.000000 -2.462093
v 0.923880 -1.000000 -2.274500
v 0.831470 -1.000000 -2.101613
v 0.707107 -1.000000 -1.950077
v 0.555570 -1.000000 -1.825714
v 0.382683 -1.000000 -1.733304
v 0.195090 -1.000000 -1.676398
v 0.000000 -1.000000 -1.657183
v -0.195090 -1.000000 -1.676398
v -0.382683 -1.000000 -1.733304
v -0.555570 -1.000000 -1.825714
v -0.707107 -1.000000 -1.950077
v -0.831470 -1.000000 -2.101613
v -0.923880 -1.000000 -2.274500
v -0.980785 -1.000000 -2.462093
v -1.000000 -1.000000 -2.657183
v -0.980785 -1.000000 -2.852274
v -0.923880 -1.000000 -3.039867
v -0.831470 -1.000000 -3.212754
v -0.707107 -1.000000 -3.364290
v -0.555570 -1.000000 -3.488653
v -0.382683 -1.000000 -3.581063
v -0.195090 -1.000000 -3.637969
v 0.000000 1.000000 -2.657183
vn 0.0878 0.4455 -0.8910
vn 0.2599 0.4455 -0.8567
vn 0.4220 0.4455 -0.7896
vn 0.5680 0.4455 -0.6921
vn 0.6921 0.4455 -0.5680
vn 0.7896 0.4455 -0.4220
vn 0.8567 0.4455 -0.2599
vn 0.8910 0.4455 -0.0878
vn 0.8910 0.4455 0.0878
vn 0.8567 0.4455 0.2599
vn 0.7896 0.4455 0.4220
vn 0.6921 0.4455 0.5680
vn 0.5680 0.4455 0.6921
vn 0.4220 0.4455 0.7896
vn 0.2599 0.4455 0.8567
vn 0.0878 0.4455 0.8910
vn -0.0878 0.4455 0.8910
vn -0.2599 0.4455 0.8567
vn -0.4220 0.4455 0.7896
vn -0.5680 0.4455 0.6921
vn -0.6921 0.4455 0.5680
vn -0.7896 0.4455 0.4220
vn -0.8567 0.4455 0.2599
vn -0.8910 0.4455 0.0878
vn -0.8910 0.4455 -0.0878
vn -0.8567 0.4455 -0.2599
vn -0.7896 0.4455 -0.4220
vn -0.6921 0.4455 -0.5680
vn -0.5680 0.4455 -0.6921
vn -0.4220 0.4455 -0.7896
vn -0.0000 -1.0000 -0.0000
vn -0.2599 0.4455 -0.8567
vn -0.0878 0.4455 -0.8910
vt 0.250000 0.490000
vt 0.250000 0.250000
vt 0.296822 0.485388
vt 0.341844 0.471731
vt 0.383337 0.449553
vt 0.419706 0.419706
vt 0.449553 0.383337
vt 0.471731 0.341844
vt 0.485388 0.296822
vt 0.490000 0.250000
vt 0.485388 0.203178
vt 0.471731 0.158156
vt 0.449553 0.116663
vt 0.419706 0.080294
vt 0.383337 0.050447
vt 0.341844 0.028269
vt 0.296822 0.014612
vt 0.250000 0.010000
vt 0.203178 0.014612
vt 0.158156 0.028269
vt 0.116663 0.050447
vt 0.080294 0.080294
vt 0.050447 0.116663
vt 0.028269 0.158156
vt 0.014612 0.203178
vt 0.010000 0.250000
vt 0.014612 0.296822
vt 0.028269 0.341844
vt 0.050447 0.383337
vt 0.080294 0.419706
vt 0.116663 0.449553
vt 0.158156 0.471731
vt 0.796822 0.014612
vt 0.514612 0.203178
vt 0.703178 0.485388
vt 0.203178 0.485388
vt 0.750000 0.490000
vt 0.796822 0.485388
vt 0.841844 0.471731
vt 0.883337 0.449553
vt 0.919706 0.419706
vt 0.949553 0.383337
vt 0.971731 0.341844
vt 0.985388 0.296822
vt 0.990000 0.250000
vt 0.985388 0.203178
vt 0.971731 0.158156
vt 0.949553 0.116663
vt 0.919706 0.080294
vt 0.883337 0.050447
vt 0.841844 0.028269
vt 0.750000 0.010000
vt 0.703178 0.014612
vt 0.658156 0.028269
vt 0.616663 0.050447
vt 0.580294 0.080294
vt 0.550447 0.116663
vt 0.528269 0.158156
vt 0.510000 0.250000
vt 0.514612 0.296822
vt 0.528269 0.341844
vt 0.550447 0.383337
vt 0.580294 0.419706
vt 0.616663 0.449553
vt 0.658156 0.471731
s 0
f 21/15/14 53/16/14 22/17/14
f 22/17/15 53/16/15 23/18/15
f 23/18/16 53/16/16 24/19/16
f 24/19/17 53/16/17 25/20/17
f 25/20/18 53/16/18 26/21/18
f 26/21/19 53/16/19 27/22/19
f 27/22/20 53/16/20 28/23/20
f 28/23/21 53/16/21 29/24/21
f 29/24/22 53/16/22 30/25/22
f 30/25/23 53/16/23 31/26/23
f 31/26/24 53/16/24 32/27/24
f 32/27/25 53/16/25 33/28/25
f 33/28/26 53/16/26 34/29/26
f 34/29/27 53/16/27 35/30/27
f 35/30/28 53/16/28 36/31/28
f 36/31/29 53/16/29 37/32/29
f 37/32/30 53/16/30 38/33/30
f 38/33/31 53/16/31 39/34/31
f 39/34/32 53/16/32 40/35/32
f 40/35/33 53/16/33 41/36/33
f 41/36/34 53/16/34 42/37/34
f 42/37/35 53/16/35 43/38/35
f 43/38/36 53/16/36 44/39/36
f 44/39/37 53/16/37 45/40/37
f 45/40/38 53/16/38 46/41/38
f 46/41/39 53/16/39 47/42/39
f 47/42/40 53/16/40 48/43/40
f 48/43/41 53/16/41 49/44/41
f 49/44/42 53/16/42 50/45/42
f 50/45/43 53/16/43 51/46/43
f 36/47/44 44/48/44 52/49/44
f 51/46/45 53/16/45 52/50/45
f 52/50/46 53/16/46 21/15/46
f 52/49/44 21/51/44 22/52/44
f 22/52/44 23/53/44 24/54/44
f 24/54/44 25/55/44 26/56/44
f 26/56/44 27/57/44 28/58/44
f 28/58/44 29/59/44 30/60/44
f 30/60/44 31/61/44 32/62/44
f 32/62/44 33/63/44 34/64/44
f 34/64/44 35/65/44 36/47/44
f 36/47/44 37/66/44 38/67/44
f 38/67/44 39/68/44 40/69/44
f 40/69/44 41/70/44 42/71/44
f 42/71/44 43/72/44 44/48/44
f 44/48/44 45/73/44 46/74/44
f 46/74/44 47/75/44 48/76/44
f 48/76/44 49/77/44 50/78/44
f 50/78/44 51/79/44 52/49/44
f 52/49/44 22/52/44 24/54/44
f 24/54/44 26/56/44 28/58/44
f 28/58/44 30/60/44 32/62/44
f 32/62/44 34/64/44 36/47/44
f 36/47/44 38/67/44 40/69/44
f 40/69/44 42/71/44 44/48/44
f 44/48/44 46/74/44 48/76/44
f 48/76/44 50/78/44 52/49/44
f 52/49/44 24/54/44 28/58/44
f 28/58/44 32/62/44 36/47/44
f 36/47/44 40/69/44 44/48/44
f 44/48/44 48/76/44 52/49/44
f 52/49/44 28/58/44 36/47/44
o Cube.001
v 4.124026 1.000000 -1.000000
v 4.124026 -1.000000 -1.000000
v 4.124026 1.000000 1.000000
v 4.124026 -1.000000 1.000000
v 2.124026 1.000000 -1.000000
v 2.124026 -1.000000 -1.000000
v 2.124026 1.000000 1.000000
v 2.124026 -1.000000 1.000000
vn -0.0000 1.0000 -0.0000
vn -0.0000 -0.0000 1.0000
vn -1.0000 -0.0000 -0.0000
vn -0.0000 -1.0000 -0.0000
vn 1.0000 -0.0000 -0.0000
vn -0.0000 -0.0000 -1.0000
vt 0.875000 0.500000
vt 0.625000 0.750000
vt 0.625000 0.500000
vt 0.375000 1.000000
vt 0.375000 0.750000
vt 0.625000 0.000000
vt 0.375000 0.250000
vt 0.375000 0.000000
vt 0.375000 0.500000
vt 0.125000 0.750000
vt 0.125000 0.500000
vt 0.625000 0.250000
vt 0.875000 0.750000
vt 0.625000 1.000000
s 0
usemtl Material
f 58/80/47 56/81/47 54/82/47
f 56/81/48 61/83/48 57/84/48
f 60/85/49 59/86/49 61/87/49
f 55/88/50 61/89/50 59/90/50
f 54/82/51 57/84/51 55/88/51
f 58/91/52 55/88/52 59/86/52
f 58/80/47 60/92/47 56/81/47
f 56/81/48 60/93/48 61/83/48
f 60/85/49 58/91/49 59/86/49
f 55/88/50 57/84/50 61/89/50
f 54/82/51 56/81/51 57/84/51
f 58/91/52 54/82/52 55/88/52
o Cube.002
v -1.131292 1.000000 3.054136
v -1.131292 -1.000000 3.054136
v 0.842929 1.000000 3.374220
v 0.842929 -1.000000 3.374220
v -1.451375 1.000000 5.028357
v -1.451375 -1.000000 5.028357
v 0.522845 1.000000 5.348440
v 0.522845 -1.000000 5.348440
v 0.284928 2.041490 3.776525
v 0.120540 2.041490 4.790440
v -0.728987 2.041490 3.612137
v -0.893375 2.041490 4.626051
v -1.010500 1.000000 2.309116
v -1.010500 -1.000000 2.309116
v 0.963720 1.000000 2.629200
v 0.963720 -1.000000 2.629200
v -0.409514 0.490998 1.782774
v -0.409514 -0.490998 1.782774
v 0.559823 0.490998 1.939934
v 0.559823 -0.490998 1.939934
vn -0.1450 0.4232 0.8944
vn 0.9871 -0.0000 0.1600
vn -0.1600 -0.0000 0.9871
vn -0.0000 -1.0000 -0.0000
vn -0.9871 -0.0000 -0.1600
vn -0.0000 1.0000 -0.0000
vn 0.1450 0.4232 -0.8944
vn -0.8944 0.4232 -0.1450
vn 0.8944 0.4232 0.1450
vn 0.1020 0.7707 -0.6289
vn 0.1600 -0.0000 -0.9871
vn -0.6588 -0.0000 -0.7523
vn 0.1020 -0.7707 -0.6289
vn 0.8628 -0.0000 -0.5056
vt 0.625000 0.000000
vt 0.625000 0.250000
vt 0.625000 0.750000
vt 0.375000 1.000000
vt 0.375000 0.750000
vt 0.375000 0.250000
vt 0.375000 0.000000
vt 0.375000 0.500000
vt 0.125000 0.750000
vt 0.125000 0.500000
vt 0.875000 0.500000
vt 0.625000 0.500000
vt 0.625000 1.000000
vt 0.875000 0.750000
s 0
usemtl Material.001
f 68/94/53 73/95/53 66/95/53
f 64/96/54 69/97/54 65/98/54
f 68/94/55 67/99/55 69/100/55
f 63/101/56 69/102/56 67/103/56
f 65/98/54 76/96/54 64/96/54
f 66/95/57 63/101/57 67/99/57
f 73/104/58 70/96/58 72/105/58
f 62/105/59 70/96/59 64/96/59
f 66/95/60 72/105/60 62/105/60
f 68/106/61 70/96/61 71/106/61
f 76/96/62 78/105/62 74/105/62
f 62/105/57 75/101/57 63/101/57
f 63/101/56 77/98/56 65/98/56
f 64/96/58 74/105/58 62/105/58
f 78/105/63 81/98/63 79/101/63
f 74/105/64 79/101/64 75/101/64
f 75/101/65 81/98/65 77/98/65
f 77/98/66 80/96/66 76/96/66
f 68/94/53 71/94/53 73/95/53
f 64/96/54 68/106/54 69/97/54
f 68/94/55 66/95/55 67/99/55
f 63/101/56 65/98/56 69/102/56
f 65/98/54 77/98/54 76/96/54
f 66/95/57 62/105/57 63/101/57
f 73/104/58 71/107/58 70/96/58
f 62/105/59 72/105/59 70/96/59
f 66/95/60 73/95/60 72/105/60
f 68/106/61 64/96/61 70/96/61
f 76/96/62 80/96/62 78/105/62
f 62/105/57 74/105/57 75/101/57
f 63/101/56 75/101/56 77/98/56
f 64/96/58 76/96/58 74/105/58
f 78/105/63 80/96/63 81/98/63
f 74/105/64 78/105/64 79/101/64
f 75/101/65 79/101/65 81/98/65
f 77/98/66 81/98/66 80/96/66
o Cube.003
v -0.478200 0.490998 -0.490998
v -0.478200 -0.490998 -0.490998
v -0.478200 0.490998 0.490998
v -0.478200 -0.490998 0.490998
vn 1.0000 -0.0000 -0.0000
vt 0.625000 0.500000
vt 0.375000 0.750000
vt 0.375000 0.500000
vt 0.625000 0.750000
s 0
usemtl Material
f 82/108/67 85/109/67 83/110/67
f 82/108/67 84/111/67 85/109/67
